<svg xmlns="http://www.w3.org/2000/svg" viewBox="0 0 64 64" width="64" height="64">
  <defs>
    <filter id="glow"><feGaussianBlur stdDeviation="1.5" result="g"/><feMerge><feMergeNode in="g"/><feMergeNode in="SourceGraphic"/></feMerge></filter>
  </defs>
  <g filter="url(#glow)">
    <path d="M32,4 L36,22 L42,8 L38,24 L52,18 L40,28 L56,30 L40,32 L52,42 L38,36 L42,52 L36,38 L32,56 L28,38 L22,52 L26,36 L12,42 L24,32 L8,30 L24,28 L12,18 L26,24 L22,8 L28,22 Z" fill="#ffd700" stroke="#b8960f" stroke-width="1"/>
  </g>
  <path d="M32,14 L34,24 L38,16 L36,26 L44,22 L38,28 L48,30 L38,32 L44,38 L36,34 L38,44 L34,36 L32,46 L30,36 L26,44 L28,34 L20,38 L26,32 L16,30 L26,28 L20,22 L28,26 L26,16 L30,24 Z" fill="#ffee88" opacity="0.5"/>
</svg>
